<svg width="94" height="94" viewBox="0 0 94 94" fill="none" xmlns="http://www.w3.org/2000/svg">
<path d="M86.1667 31.3333C86.171 25.4744 83.9864 19.8251 80.0415 15.4932C76.0965 11.1614 70.6756 8.45939 64.8418 7.91709C59.008 7.3748 53.1819 9.0313 48.5061 12.5618C43.8303 16.0923 40.6419 21.2421 39.5662 27.0015C37.3376 34.2082 35.3244 38.1327 34.2199 39.9618L24.3617 49.82C24.0105 50.1716 23.7542 50.6065 23.6169 51.0841C23.4795 51.5616 23.4655 52.0662 23.5763 52.5507C23.687 53.0351 23.9188 53.4835 24.25 53.854C24.5813 54.2244 25.001 54.5048 25.4701 54.6688L17.4762 62.6667C15.4154 62.6972 13.4168 63.3771 11.765 64.6097C10.1132 65.8423 8.89251 67.5647 8.27668 69.5315C7.66085 71.4983 7.68134 73.6093 8.33522 75.5639C8.98911 77.5184 10.243 79.2167 11.9184 80.417C12.5529 80.8714 13.1287 81.4432 13.583 82.0816C14.7843 83.7582 16.4844 85.0127 18.4408 85.6661C20.3972 86.3195 22.5099 86.3383 24.4777 85.72C26.4454 85.1018 28.1676 83.8779 29.3987 82.223C30.6298 80.5681 31.3069 78.5667 31.3334 76.5043L39.3234 68.5143C39.485 68.986 39.7642 69.4089 40.1344 69.7429C40.5047 70.077 40.954 70.3113 41.4398 70.4238C41.9257 70.5362 42.4322 70.5231 42.9116 70.3857C43.391 70.2483 43.8275 69.9911 44.18 69.6384L54.0657 59.7527C55.9183 58.6443 59.8545 56.6389 67.0494 54.426C72.4258 53.4039 77.277 50.538 80.7668 46.3225C84.2566 42.107 86.1663 36.806 86.1667 31.3333ZM33.6168 54.8333H39.1667V60.3637L26.9624 72.5641C26.4736 73.0694 26.0892 73.666 25.8311 74.3199C25.5731 74.9738 25.4464 75.6721 25.4584 76.375C25.4581 77.2043 25.1947 78.0122 24.706 78.6822C24.2172 79.3522 23.5284 79.8497 22.7388 80.1032C21.9492 80.3567 21.0995 80.353 20.3121 80.0927C19.5247 79.8323 18.8403 79.3288 18.3574 78.6545C17.5232 77.4941 16.5059 76.4769 15.3455 75.6426C14.6713 75.1597 14.1677 74.4753 13.9074 73.6879C13.647 72.9005 13.6434 72.0508 13.8968 71.2612C14.1503 70.4716 14.6479 69.7828 15.3179 69.2941C15.9879 68.8053 16.7957 68.5419 17.625 68.5417C18.7961 68.5417 20.2609 68.1892 21.4046 67.0455L33.6168 54.8333Z" fill="#FFA30C"/>
</svg>
