<svg width="94" height="94" viewBox="0 0 94 94" fill="none" xmlns="http://www.w3.org/2000/svg">
<path d="M32.9 16.45C32.8993 17.8717 33.3285 19.2605 34.1312 20.4339C34.9339 21.6073 36.0726 22.5107 37.3979 23.0253C36.8527 25.4082 35.2171 27.1707 32.712 29.7557L32.7073 29.7651C32.2138 30.268 31.6921 30.8038 31.161 31.3678C26.508 35.1936 23.5 40.7537 23.5 47C23.5 47.4418 23.5141 47.8836 23.547 48.316C23.5141 48.6591 23.5 49.0022 23.5 49.35V72.85C23.5001 74.9126 24.043 76.9387 25.0743 78.7249C26.1056 80.5111 27.5889 81.9944 29.3751 83.0256C31.1613 84.0568 33.1875 84.5997 35.2501 84.5997C37.3126 84.5997 39.3388 84.0568 41.125 83.0255C42.9103 84.059 44.9371 84.6022 47 84.6C49.0629 84.6022 51.0897 84.059 52.875 83.0255C54.6612 84.0568 56.6874 84.5997 58.7499 84.5997C60.8125 84.5997 62.8386 84.0568 64.6249 83.0256C66.4111 81.9944 67.8944 80.5111 68.9257 78.7249C69.957 76.9387 70.4999 74.9126 70.5 72.85V49.35C70.5 49.0022 70.4859 48.6591 70.453 48.316C70.7389 44.07 69.6262 39.8473 67.2852 36.2934C65.4146 33.4922 63.2761 31.3866 61.476 29.61L61.429 29.563C58.8628 27.0391 57.1896 25.3048 56.6209 23.0159C58.1515 22.4174 59.4249 21.303 60.221 19.8653C61.0172 18.4276 61.286 16.7569 60.9811 15.142C60.6762 13.5271 59.8167 12.0694 58.5511 11.021C57.2855 9.97256 55.6934 9.3992 54.05 9.40003H39.95C38.0802 9.40003 36.287 10.1428 34.9649 11.4649C33.6428 12.7871 32.9 14.5802 32.9 16.45ZM28.2 72.85V70.5H65.8V72.85C65.7997 74.1779 65.4244 75.4786 64.7174 76.6025C64.0103 77.7264 63.0002 78.6278 61.8034 79.2029C60.6065 79.778 59.2716 80.0034 57.9523 79.8532C56.633 79.7029 55.383 79.1832 54.3461 78.3537C53.9289 78.0188 53.41 77.8363 52.875 77.8363C52.34 77.8363 51.8211 78.0188 51.4039 78.3537C50.1558 79.3572 48.6015 79.903 47 79.9C45.3315 79.9 43.804 79.3219 42.5961 78.3537C42.1789 78.0188 41.66 77.8363 41.125 77.8363C40.59 77.8363 40.0711 78.0188 39.6539 78.3537C38.617 79.1832 37.367 79.7029 36.0477 79.8532C34.7284 80.0034 33.3934 79.778 32.1966 79.2029C30.9998 78.6278 29.9897 77.7264 29.2826 76.6025C28.5756 75.4786 28.2003 74.1779 28.2 72.85ZM42.0932 23.5H51.9162C52.6917 27.5608 55.413 30.2398 57.9181 32.7073L58.1155 32.9H36.2088L36.2699 32.8389C38.7374 30.2962 41.3506 27.5984 42.0932 23.5ZM54.05 18.8H39.95C39.3267 18.8 38.729 18.5524 38.2883 18.1117C37.8476 17.671 37.6 17.0733 37.6 16.45C37.6 15.8268 37.8476 15.229 38.2883 14.7883C38.729 14.3476 39.3267 14.1 39.95 14.1H54.05C54.6733 14.1 55.271 14.3476 55.7117 14.7883C56.1524 15.229 56.4 15.8268 56.4 16.45C56.4 17.0733 56.1524 17.671 55.7117 18.1117C55.271 18.5524 54.6733 18.8 54.05 18.8Z" fill="#FFA30C"/>
</svg>
