<svg width="94" height="94" viewBox="0 0 94 94" fill="none" xmlns="http://www.w3.org/2000/svg">
<path d="M58.75 58.75L71.9844 45.5156C72.756 44.7442 73.6719 44.1324 74.68 43.7151C75.688 43.2978 76.7684 43.0831 77.8594 43.0833H78.3333C80.4109 43.0833 82.4033 43.9086 83.8723 45.3776C85.3414 46.8467 86.1667 48.8391 86.1667 50.9166C86.1667 52.9942 85.3414 54.9866 83.8723 56.4556C82.4033 57.9247 80.4109 58.75 78.3333 58.75H15.6667C13.5891 58.75 11.5967 57.9247 10.1277 56.4556C8.65862 54.9866 7.83333 52.9942 7.83333 50.9166C7.83333 48.8391 8.65862 46.8467 10.1277 45.3776C11.5967 43.9086 13.5891 43.0833 15.6667 43.0833H33.3504C39.5819 43.0836 45.5582 45.5589 49.9649 49.9649L58.75 58.75ZM11.75 58.75H82.25V66.5833C82.25 69.6996 81.0121 72.6883 78.8085 74.8918C76.605 77.0954 73.6163 78.3333 70.5 78.3333H23.5C20.3837 78.3333 17.395 77.0954 15.1915 74.8918C12.9879 72.6883 11.75 69.6996 11.75 66.5833V58.75Z" stroke="#FFA30C" stroke-width="7.83333" stroke-linecap="round" stroke-linejoin="round"/>
<path d="M58.7539 27.4167H58.75M47.0039 31.3334H47M47 15.6667C28.8932 15.6667 13.9747 22.5444 11.9772 39.1667C11.7187 41.3209 13.5047 43.0834 15.6667 43.0834H78.3333C80.4953 43.0834 82.2813 41.3209 82.0228 39.1667C80.0253 22.5444 65.1067 15.6667 47 15.6667Z" stroke="#FFA30C" stroke-width="7.83333" stroke-linecap="round" stroke-linejoin="round"/>
</svg>
