<svg width="94" height="94" viewBox="0 0 94 94" fill="none" xmlns="http://www.w3.org/2000/svg">
<path d="M67.1219 7.74333L67.2834 7.90195V7.90783C67.8621 8.4777 68.3879 9.08283 68.8609 9.72026C72.4373 10.3517 75.7297 12.0769 78.2844 14.6582C80.3592 16.7192 81.8886 19.2642 82.7347 22.0636C83.9156 22.7657 85.0318 23.6264 86.0599 24.6545L86.2362 24.8308C88.8207 27.4159 90.5006 30.7669 91.0257 34.3845C91.5509 38.002 90.893 41.6924 89.1502 44.9056C79.0077 63.6329 63.6358 79.0048 44.9085 89.1473C41.6969 90.8968 38.005 91.5589 34.3856 91.0347C30.7662 90.5104 27.4139 88.828 24.8307 86.2392L24.6544 86.063C24.1966 85.605 23.7651 85.1215 23.3619 84.6148C19.5654 84.0764 16.0467 82.3186 13.3362 79.6063C10.1224 76.4141 8.26327 72.1055 8.14568 67.5773C8.05658 67.4921 7.96845 67.4059 7.88131 67.3188L7.70506 67.1425C-7.39098e-06 59.4404 1.85943 46.4713 11.468 41.2749C24.0891 34.4456 34.4468 24.0869 41.2748 11.4651V11.4622C46.4654 1.90651 59.4344 -0.00579786 67.1219 7.74333ZM46.4389 14.2675C39.0672 27.8892 27.8869 39.0685 14.2645 46.439C9.30893 49.1209 7.57287 55.0459 9.68199 59.8223C11.1499 56.5281 13.5945 53.7645 16.685 51.9057C30.55 43.5045 42.1825 31.872 50.5837 18.007C52.8653 14.214 56.4904 11.4183 60.7387 10.1756C59.5342 9.49212 58.2056 9.05562 56.8305 8.8916C55.4554 8.72758 54.0614 8.83933 52.73 9.22032C51.3986 9.60131 50.1565 10.2439 49.0763 11.1105C47.9961 11.9771 47.0995 13.0504 46.4389 14.2675ZM64.5927 31.3344C56.9687 45.4139 45.4116 56.97 31.3314 64.5928C24.9188 68.0649 23.6498 76.7481 28.8081 81.9064L28.9843 82.0826C30.67 83.7755 32.8588 84.8766 35.2229 85.2208C37.5869 85.565 39.9989 85.1339 42.0973 83.992L42.1061 83.9861C59.833 74.3852 74.3834 59.8338 83.9831 42.1062L83.9861 42.1033C85.1249 40.0034 85.5549 37.5919 85.2119 35.2279C84.8688 32.8639 83.7712 30.6739 82.0826 28.9844L81.9063 28.8081C76.7481 23.6499 68.0648 24.9189 64.5927 31.3344ZM60.4978 23.0448C60.7723 22.7828 60.9916 22.4687 61.1429 22.1208C61.2942 21.7728 61.3744 21.3982 61.3788 21.0188C61.3832 20.6395 61.3118 20.263 61.1687 19.9117C61.0255 19.5603 60.8136 19.2412 60.5453 18.9729C60.2771 18.7046 59.9579 18.4927 59.6065 18.3495C59.2552 18.2064 58.8787 18.135 58.4994 18.1394C58.12 18.1438 57.7454 18.224 57.3974 18.3753C57.0495 18.5266 56.7354 18.7459 56.4734 19.0204C54.0294 21.4615 54.0441 24.1023 54.0529 25.7502V25.8501C54.0617 27.4099 54.0118 27.9181 53.3009 28.629C52.5901 29.3398 52.0819 29.3898 50.5221 29.381H50.4251C48.7743 29.3721 46.1364 29.3575 43.6953 31.8015C41.2513 34.2425 41.266 36.8833 41.2748 38.5313V38.6282C41.2807 40.188 41.2337 40.6962 40.5228 41.4071C39.8119 42.118 39.3037 42.165 37.7439 42.1591H37.647C35.9961 42.1503 33.3582 42.1356 30.9172 44.5796C28.4732 47.0206 28.4879 49.6614 28.4967 51.3094V51.4063C28.5055 52.9632 28.4556 53.4714 27.7476 54.1793C27.0426 54.8784 26.5227 54.9313 24.957 54.9225H24.8512C23.2062 54.9137 20.5684 54.899 18.1391 57.3283C17.8646 57.5903 17.6453 57.9044 17.494 58.2523C17.3427 58.6003 17.2625 58.9749 17.258 59.3543C17.2536 59.7336 17.3251 60.11 17.4682 60.4614C17.6114 60.8127 17.8233 61.1319 18.0916 61.4002C18.3598 61.6685 18.679 61.8804 19.0304 62.0235C19.3817 62.1667 19.7581 62.2381 20.1375 62.2337C20.5169 62.2293 20.8915 62.1491 21.2394 61.9978C21.5873 61.8465 21.9015 61.6272 22.1634 61.3527C22.8567 60.6594 23.3561 60.6066 24.9306 60.6154H25.0334C26.6784 60.6242 29.3192 60.6389 31.7602 58.2184L31.7691 58.2096C34.2131 55.7685 34.1984 53.1277 34.1896 51.4798V51.3828C34.1807 49.823 34.2307 49.3148 34.9416 48.6039C35.6524 47.8931 36.1606 47.8431 37.7204 47.852H37.8174C39.4682 47.8608 42.1061 47.8755 44.5472 45.4314C46.9912 42.9904 46.9765 40.3496 46.9677 38.7016V38.6047C46.9589 37.0449 47.0088 36.5367 47.7197 35.8258C48.4306 35.115 48.9388 35.068 50.4956 35.0738H50.5955C52.2464 35.0826 54.8842 35.0973 57.3253 32.6533C59.7693 30.2123 59.7546 27.5714 59.7458 25.9235V25.8207C59.737 24.2609 59.7869 23.7556 60.4978 23.0448Z" fill="#FFA30C"/>
</svg>
