<svg width="146" height="66" viewBox="0 0 146 66" fill="none" xmlns="http://www.w3.org/2000/svg">
<path d="M12.6418 23.3024C11.0288 23.3024 9.52674 23.0403 8.13554 22.5161C6.76449 21.9717 5.56483 21.2156 4.53654 20.2478C3.52842 19.2599 2.74209 18.1005 2.17754 16.7698C1.61299 15.4391 1.33072 13.9874 1.33072 12.4147C1.33072 10.8421 1.61299 9.39037 2.17754 8.05965C2.74209 6.72893 3.5385 5.57967 4.56679 4.61187C5.59507 3.62391 6.79474 2.86782 8.16578 2.3436C9.53683 1.79921 11.0389 1.52702 12.6721 1.52702C14.406 1.52702 15.9888 1.82946 17.4203 2.43433C18.8519 3.01904 20.0616 3.89611 21.0496 5.06553L18.5091 7.45477C17.7429 6.62812 16.886 6.01316 15.9384 5.60991C14.9908 5.1865 13.9625 4.9748 12.8535 4.9748C11.7446 4.9748 10.7264 5.15626 9.79894 5.51918C8.89163 5.88211 8.09521 6.39625 7.40969 7.06161C6.74433 7.72697 6.22011 8.5133 5.83702 9.42061C5.4741 10.3279 5.29264 11.326 5.29264 12.4147C5.29264 13.5035 5.4741 14.5015 5.83702 15.4088C6.22011 16.3162 6.74433 17.1025 7.40969 17.7679C8.09521 18.4332 8.89163 18.9474 9.79894 19.3103C10.7264 19.6732 11.7446 19.8547 12.8535 19.8547C13.9625 19.8547 14.9908 19.653 15.9384 19.2498C16.886 18.8264 17.7429 18.1913 18.5091 17.3444L21.0496 19.7639C20.0616 20.9132 18.8519 21.7903 17.4203 22.3951C15.9888 23 14.396 23.3024 12.6418 23.3024ZM31.0921 23.2117C29.4388 23.2117 27.9669 22.8589 26.6765 22.1532C25.3861 21.4273 24.3679 20.4394 23.6219 19.1893C22.8759 17.9392 22.5029 16.5178 22.5029 14.925C22.5029 13.312 22.8759 11.8905 23.6219 10.6606C24.3679 9.41053 25.3861 8.43265 26.6765 7.72697C27.9669 7.02128 29.4388 6.66844 31.0921 6.66844C32.7656 6.66844 34.2475 7.02128 35.5379 7.72697C36.8485 8.43265 37.8667 9.40045 38.5925 10.6304C39.3385 11.8603 39.7115 13.2918 39.7115 14.925C39.7115 16.5178 39.3385 17.9392 38.5925 19.1893C37.8667 20.4394 36.8485 21.4273 35.5379 22.1532C34.2475 22.8589 32.7656 23.2117 31.0921 23.2117ZM31.0921 19.9756C32.0196 19.9756 32.8462 19.774 33.5721 19.3708C34.2979 18.9675 34.8625 18.3828 35.2657 17.6166C35.6891 16.8505 35.9008 15.9532 35.9008 14.925C35.9008 13.8765 35.6891 12.9793 35.2657 12.2333C34.8625 11.4671 34.2979 10.8824 33.5721 10.4791C32.8462 10.0759 32.0297 9.87426 31.1223 9.87426C30.1949 9.87426 29.3682 10.0759 28.6424 10.4791C27.9367 10.8824 27.3721 11.4671 26.9487 12.2333C26.5253 12.9793 26.3136 13.8765 26.3136 14.925C26.3136 15.9532 26.5253 16.8505 26.9487 17.6166C27.3721 18.3828 27.9367 18.9675 28.6424 19.3708C29.3682 19.774 30.1848 19.9756 31.0921 19.9756ZM50.7363 23.2117C49.0426 23.2117 47.5305 22.8589 46.1997 22.1532C44.8892 21.4273 43.8609 20.4394 43.1149 19.1893C42.3689 17.9392 41.9959 16.5178 41.9959 14.925C41.9959 13.312 42.3689 11.8905 43.1149 10.6606C43.8609 9.41053 44.8892 8.43265 46.1997 7.72697C47.5305 7.02128 49.0426 6.66844 50.7363 6.66844C52.309 6.66844 53.6901 6.99104 54.8797 7.63624C56.0894 8.26127 57.0068 9.18874 57.6318 10.4186L54.7284 12.1123C54.2445 11.3461 53.6498 10.7816 52.9441 10.4186C52.2585 10.0557 51.5125 9.87426 50.706 9.87426C49.7786 9.87426 48.9418 10.0759 48.1958 10.4791C47.4498 10.8824 46.8651 11.4671 46.4417 12.2333C46.0183 12.9793 45.8066 13.8765 45.8066 14.925C45.8066 15.9734 46.0183 16.8807 46.4417 17.6469C46.8651 18.3929 47.4498 18.9675 48.1958 19.3708C48.9418 19.774 49.7786 19.9756 50.706 19.9756C51.5125 19.9756 52.2585 19.7942 52.9441 19.4313C53.6498 19.0683 54.2445 18.5038 54.7284 17.7376L57.6318 19.4313C57.0068 20.641 56.0894 21.5785 54.8797 22.2439C53.6901 22.8891 52.309 23.2117 50.7363 23.2117ZM69.9159 6.66844C71.2063 6.66844 72.3556 6.92047 73.3637 7.42453C74.392 7.92859 75.1985 8.70484 75.7832 9.75329C76.3679 10.7816 76.6603 12.1123 76.6603 13.7454V23H72.8798V14.2293C72.8798 12.7978 72.5371 11.7292 71.8515 11.0235C71.1862 10.3178 70.2486 9.96499 69.0389 9.96499C68.1517 9.96499 67.3654 10.1465 66.6799 10.5094C65.9944 10.8723 65.4601 11.4167 65.077 12.1425C64.714 12.8482 64.5326 13.7454 64.5326 14.8342V23H60.7521V0.559226H64.5326V11.205L63.716 9.87426C64.2805 8.84598 65.0971 8.05965 66.1657 7.51526C67.2545 6.95071 68.5046 6.66844 69.9159 6.66844ZM88.744 23.2117C87.0907 23.2117 85.6189 22.8589 84.3285 22.1532C83.0381 21.4273 82.0199 20.4394 81.2738 19.1893C80.5278 17.9392 80.1548 16.5178 80.1548 14.925C80.1548 13.312 80.5278 11.8905 81.2738 10.6606C82.0199 9.41053 83.0381 8.43265 84.3285 7.72697C85.6189 7.02128 87.0907 6.66844 88.744 6.66844C90.4175 6.66844 91.8994 7.02128 93.1898 7.72697C94.5004 8.43265 95.5186 9.40045 96.2444 10.6304C96.9905 11.8603 97.3635 13.2918 97.3635 14.925C97.3635 16.5178 96.9905 17.9392 96.2444 19.1893C95.5186 20.4394 94.5004 21.4273 93.1898 22.1532C91.8994 22.8589 90.4175 23.2117 88.744 23.2117ZM88.744 19.9756C89.6715 19.9756 90.4982 19.774 91.224 19.3708C91.9499 18.9675 92.5144 18.3828 92.9176 17.6166C93.3411 16.8505 93.5528 15.9532 93.5528 14.925C93.5528 13.8765 93.3411 12.9793 92.9176 12.2333C92.5144 11.4671 91.9499 10.8824 91.224 10.4791C90.4982 10.0759 89.6816 9.87426 88.7743 9.87426C87.8468 9.87426 87.0201 10.0759 86.2943 10.4791C85.5886 10.8824 85.0241 11.4671 84.6006 12.2333C84.1772 12.9793 83.9655 13.8765 83.9655 14.925C83.9655 15.9532 84.1772 16.8505 84.6006 17.6166C85.0241 18.3828 85.5886 18.9675 86.2943 19.3708C87.0201 19.774 87.8367 19.9756 88.744 19.9756ZM100.01 9.72305L101.764 3.00896L102.278 5.27723C101.573 5.27723 100.978 5.05545 100.494 4.61187C100.03 4.1683 99.7983 3.57351 99.7983 2.8275C99.7983 2.08149 100.03 1.4867 100.494 1.04312C100.978 0.579389 101.563 0.347521 102.248 0.347521C102.954 0.347521 103.538 0.579389 104.002 1.04312C104.466 1.50686 104.698 2.10165 104.698 2.8275C104.698 3.04928 104.678 3.28115 104.637 3.5231C104.617 3.74489 104.557 4.007 104.456 4.30944C104.375 4.59171 104.234 4.96471 104.032 5.42845L102.46 9.72305H100.01ZM112.88 23.2117C111.529 23.2117 110.229 23.0403 108.978 22.6976C107.749 22.3346 106.771 21.9011 106.045 21.3971L107.496 18.5239C108.222 18.9877 109.089 19.3708 110.097 19.6732C111.106 19.9756 112.114 20.1269 113.122 20.1269C114.311 20.1269 115.168 19.9656 115.693 19.643C116.237 19.3204 116.509 18.8869 116.509 18.3425C116.509 17.8989 116.328 17.5662 115.965 17.3444C115.602 17.1025 115.128 16.921 114.543 16.8001C113.959 16.6791 113.303 16.5682 112.577 16.4674C111.872 16.3666 111.156 16.2355 110.43 16.0742C109.724 15.8927 109.079 15.6407 108.495 15.3181C107.91 14.9754 107.436 14.5217 107.073 13.9572C106.71 13.3926 106.529 12.6466 106.529 11.7191C106.529 10.6908 106.821 9.8037 107.406 9.05769C107.99 8.29151 108.807 7.7068 109.855 7.30355C110.924 6.88014 112.184 6.66844 113.636 6.66844C114.725 6.66844 115.824 6.78941 116.933 7.03136C118.041 7.27331 118.959 7.61607 119.685 8.05965L118.233 10.9328C117.467 10.4691 116.691 10.1565 115.904 9.99524C115.138 9.81378 114.372 9.72305 113.606 9.72305C112.456 9.72305 111.6 9.89443 111.035 10.2372C110.491 10.5799 110.218 11.0134 110.218 11.5377C110.218 12.0216 110.4 12.3845 110.763 12.6264C111.126 12.8684 111.6 13.0599 112.184 13.2011C112.769 13.3422 113.414 13.4632 114.12 13.564C114.846 13.6446 115.561 13.7757 116.267 13.9572C116.973 14.1386 117.618 14.3906 118.203 14.7132C118.808 15.0157 119.292 15.4492 119.654 16.0137C120.017 16.5783 120.199 17.3142 120.199 18.2215C120.199 19.2296 119.896 20.1067 119.292 20.8527C118.707 21.5987 117.87 22.1834 116.781 22.6068C115.693 23.0101 114.392 23.2117 112.88 23.2117ZM3.32 57L3.32 29H17C20.52 29 23.16 29.6667 24.92 31C26.7067 32.3333 27.6 34.0933 27.6 36.28C27.6 37.7467 27.24 39.0267 26.52 40.12C25.8 41.1867 24.8133 42.0133 23.56 42.6C22.3067 43.1867 20.8667 43.48 19.24 43.48L20 41.84C21.76 41.84 23.32 42.1333 24.68 42.72C26.04 43.28 27.0933 44.12 27.84 45.24C28.6133 46.36 29 47.7333 29 49.36C29 51.76 28.0533 53.64 26.16 55C24.2667 56.3333 21.48 57 17.8 57H3.32ZM9.76 52.12H17.32C19 52.12 20.2667 51.8533 21.12 51.32C22 50.76 22.44 49.88 22.44 48.68C22.44 47.5067 22 46.64 21.12 46.08C20.2667 45.4933 19 45.2 17.32 45.2H9.28V40.48H16.2C17.7733 40.48 18.9733 40.2133 19.8 39.68C20.6533 39.12 21.08 38.28 21.08 37.16C21.08 36.0667 20.6533 35.2533 19.8 34.72C18.9733 34.16 17.7733 33.88 16.2 33.88H9.76V52.12ZM42.5459 57.32C40.7593 57.32 39.1593 56.9733 37.7459 56.28C36.3593 55.5867 35.2793 54.5333 34.5059 53.12C33.7326 51.68 33.3459 49.8533 33.3459 47.64V35.48H39.5859V46.72C39.5859 48.5067 39.9593 49.8267 40.7059 50.68C41.4793 51.5067 42.5593 51.92 43.9459 51.92C44.9059 51.92 45.7593 51.72 46.5059 51.32C47.2526 50.8933 47.8393 50.2533 48.2659 49.4C48.6926 48.52 48.9059 47.4267 48.9059 46.12V35.48H55.1459V57H49.2259V51.08L50.3059 52.8C49.5859 54.2933 48.5193 55.4267 47.1059 56.2C45.7193 56.9467 44.1993 57.32 42.5459 57.32ZM60.9269 57V35.48H66.8869V41.56L66.0469 39.8C66.6869 38.28 67.7135 37.1333 69.1269 36.36C70.5402 35.56 72.2602 35.16 74.2869 35.16V40.92C74.0202 40.8933 73.7802 40.88 73.5669 40.88C73.3535 40.8533 73.1269 40.84 72.8869 40.84C71.1802 40.84 69.7935 41.3333 68.7269 42.32C67.6869 43.28 67.1669 44.7867 67.1669 46.84V57H60.9269ZM87.9609 65.08C85.9343 65.08 83.9743 64.8267 82.0809 64.32C80.2143 63.84 78.6543 63.1067 77.4009 62.12L79.8809 57.64C80.7876 58.3867 81.9343 58.9733 83.3209 59.4C84.7343 59.8533 86.1209 60.08 87.4809 60.08C89.6943 60.08 91.2943 59.5867 92.2809 58.6C93.2943 57.6133 93.8009 56.1467 93.8009 54.2V50.96L94.2009 45.56L94.1209 40.12V35.48H100.041V53.4C100.041 57.4 99.0009 60.3467 96.9209 62.24C94.8409 64.1333 91.8543 65.08 87.9609 65.08ZM87.0009 55.96C85.0009 55.96 83.1876 55.5333 81.5609 54.68C79.9609 53.8 78.6676 52.5867 77.6809 51.04C76.7209 49.4667 76.2409 47.64 76.2409 45.56C76.2409 43.4533 76.7209 41.6267 77.6809 40.08C78.6676 38.5067 79.9609 37.2933 81.5609 36.44C83.1876 35.5867 85.0009 35.16 87.0009 35.16C88.8143 35.16 90.4143 35.5333 91.8009 36.28C93.1876 37 94.2676 38.1333 95.0409 39.68C95.8143 41.2 96.2009 43.16 96.2009 45.56C96.2009 47.9333 95.8143 49.8933 95.0409 51.44C94.2676 52.96 93.1876 54.0933 91.8009 54.84C90.4143 55.5867 88.8143 55.96 87.0009 55.96ZM88.2409 50.84C89.3343 50.84 90.3076 50.6267 91.1609 50.2C92.0143 49.7467 92.6809 49.12 93.1609 48.32C93.6409 47.52 93.8809 46.6 93.8809 45.56C93.8809 44.4933 93.6409 43.5733 93.1609 42.8C92.6809 42 92.0143 41.3867 91.1609 40.96C90.3076 40.5067 89.3343 40.28 88.2409 40.28C87.1476 40.28 86.1743 40.5067 85.3209 40.96C84.4676 41.3867 83.7876 42 83.2809 42.8C82.8009 43.5733 82.5609 44.4933 82.5609 45.56C82.5609 46.6 82.8009 47.52 83.2809 48.32C83.7876 49.12 84.4676 49.7467 85.3209 50.2C86.1743 50.6267 87.1476 50.84 88.2409 50.84ZM116.529 57.32C114.075 57.32 111.915 56.84 110.049 55.88C108.209 54.92 106.782 53.6133 105.769 51.96C104.755 50.28 104.249 48.3733 104.249 46.24C104.249 44.08 104.742 42.1733 105.729 40.52C106.742 38.84 108.115 37.5333 109.849 36.6C111.582 35.64 113.542 35.16 115.729 35.16C117.835 35.16 119.729 35.6133 121.409 36.52C123.115 37.4 124.462 38.68 125.449 40.36C126.435 42.0133 126.929 44 126.929 46.32C126.929 46.56 126.915 46.84 126.889 47.16C126.862 47.4533 126.835 47.7333 126.809 48H109.329V44.36H123.529L121.129 45.44C121.129 44.32 120.902 43.3467 120.449 42.52C119.995 41.6933 119.369 41.0533 118.569 40.6C117.769 40.12 116.835 39.88 115.769 39.88C114.702 39.88 113.755 40.12 112.929 40.6C112.129 41.0533 111.502 41.7067 111.049 42.56C110.595 43.3867 110.369 44.3733 110.369 45.52V46.48C110.369 47.6533 110.622 48.6933 111.129 49.6C111.662 50.48 112.395 51.16 113.329 51.64C114.289 52.0933 115.409 52.32 116.689 52.32C117.835 52.32 118.835 52.1467 119.689 51.8C120.569 51.4533 121.369 50.9333 122.089 50.24L125.409 53.84C124.422 54.96 123.182 55.8267 121.689 56.44C120.195 57.0267 118.475 57.32 116.529 57.32ZM131.083 57V35.48H137.043V41.56L136.203 39.8C136.843 38.28 137.87 37.1333 139.283 36.36C140.696 35.56 142.416 35.16 144.443 35.16V40.92C144.176 40.8933 143.936 40.88 143.723 40.88C143.51 40.8533 143.283 40.84 143.043 40.84C141.336 40.84 139.95 41.3333 138.883 42.32C137.843 43.28 137.323 44.7867 137.323 46.84V57H131.083Z" fill="black"/>
</svg>
