<svg width="94" height="94" viewBox="0 0 94 94" fill="none" xmlns="http://www.w3.org/2000/svg">
<path d="M5.87501 36.2194C5.87501 17.8218 20.7916 2.9375 39.1569 2.9375H54.4613C72.8559 2.9375 87.7431 17.8247 87.7431 36.2194C87.7429 36.4097 87.7243 36.5996 87.6873 36.7863L87.6903 36.8744L87.0734 39.5711C84.8174 49.4234 77.5559 81.1367 77.0154 83.707C76.0724 88.1896 72.0216 91.3563 67.4744 91.3563H26.1731C23.9573 91.3591 21.8065 90.608 20.0741 89.2264C18.3418 87.8448 17.1311 85.9149 16.6409 83.754L6.06595 37.2681C5.93875 36.9331 5.87404 36.5777 5.87501 36.2194ZM24.3842 33.652C25.6028 34.0717 26.686 34.8117 27.5202 35.7942C28.3544 36.7767 28.9088 37.9656 29.1253 39.2362C29.8117 43.1068 31.7473 46.6458 34.6361 49.3118L31.8366 23.7467L31.2256 20.0925C31.1143 19.4548 30.7554 18.887 30.2271 18.5128C29.6989 18.1386 29.0441 17.9884 28.4056 18.095L21.9725 19.1819L24.3842 33.652ZM37.8526 51.6794C40.675 53.3117 43.8901 54.1406 47.1498 54.0764L43.7394 22.9713C43.7054 22.6508 43.6084 22.3402 43.454 22.0573C43.2996 21.7745 43.0909 21.5249 42.8398 21.3229C42.5887 21.1209 42.3001 20.9705 41.9907 20.8804C41.6813 20.7902 41.3572 20.762 41.0369 20.7975L34.545 21.5025L37.8526 51.6794ZM51.5355 53.4537C54.7795 52.5716 57.7106 50.7966 59.9955 48.3307L63.3325 22.7656C63.3883 22.3322 63.5591 21.9216 63.8272 21.5766C64.0953 21.2315 64.4509 20.9645 64.8571 20.8034L64.9188 20.3275C64.9999 19.6816 64.8235 19.0298 64.4277 18.513C64.0318 17.9963 63.4485 17.6561 62.8038 17.5662L56.3413 16.7144L51.5355 53.4537ZM65.3388 36.9361C65.9491 35.8289 66.8454 34.9058 67.934 34.2631C69.0227 33.6203 70.2639 33.2815 71.5281 33.2819H73.7783L74.8651 33.2789L76.0225 24.4106C76.0658 24.0903 76.0454 23.7646 75.9625 23.4522C75.8795 23.1398 75.7356 22.8469 75.5391 22.5903C75.3425 22.3337 75.0972 22.1185 74.8172 21.957C74.5372 21.7955 74.2281 21.691 73.9075 21.6494L67.445 20.7975L67.4421 20.8269L65.3388 36.9361ZM48.9476 43.5337L50.995 27.8739V13.0425C50.9982 12.7214 50.9372 12.403 50.8158 12.1058C50.6944 11.8085 50.5149 11.5385 50.2879 11.3115C50.0609 11.0845 49.7908 10.905 49.4936 10.7836C49.1964 10.6622 48.8779 10.6012 48.5569 10.6044H42.0356V17.8953C44.4326 18.2184 46.3831 20.1366 46.6593 22.6511L48.9505 43.5367L48.9476 43.5337ZM71.5281 39.1569C71.2282 39.1627 70.9403 39.2759 70.7166 39.4758C70.493 39.6758 70.3484 39.9493 70.3091 40.2467V40.2555C68.3321 51.4415 58.5884 59.9544 46.8238 59.9544C35.0591 59.9544 25.3154 51.4415 23.3384 40.2555V40.2437C23.2992 39.9463 23.1546 39.6728 22.9309 39.4729C22.7073 39.2729 22.4193 39.1598 22.1194 39.1539H12.5226L22.3691 82.4468C22.7715 84.2181 24.3372 85.4783 26.1731 85.4783H67.4744C69.3338 85.4783 70.9142 84.1682 71.2696 82.4938C71.8072 79.9411 78.6868 49.8758 81.1426 39.1451H78.7044L73.7929 39.151L71.5281 39.1569Z" fill="#FFA30C"/>
</svg>
